<svg width="242" height="107" viewBox="0 0 242 107" fill="none" xmlns="http://www.w3.org/2000/svg">
<g clip-path="url(#clip0_160_521)">
<path d="M165.89 55.5C165.85 55.3699 165.8 55.2299 165.74 55.11C165.95 54.24 165.72 53.5099 165.16 52.7999C163.74 51.0099 162.48 49.09 160.97 47.38C159.26 45.44 158.19 42.9399 155.85 41.57C154.99 38.02 151.71 36.13 150.01 33.1399C149.58 32.38 148.63 32.66 148.51 33.75C148.43 34.49 148.46 35.25 148.46 36C148.46 48.7299 148.4 61.4699 148.49 74.1999C148.51 76.4899 147.82 77.1799 145.51 77.1099C139.77 76.9499 134.02 76.9299 128.28 77.1299C125.76 77.2099 125.27 76.3099 125.27 73.9999C125.35 49.3599 125.32 24.7299 125.33 0.0899487C134.33 0.0899487 143.34 0.0699487 152.34 0.0599487L152.35 0.0699487C152.46 1.31995 153.36 1.96995 154.28 2.59995C154.32 2.74995 154.37 2.88995 154.44 3.02995C155.42 4.53995 156.41 6.04995 158.17 6.79995C158.24 7.04995 158.31 7.29995 158.38 7.54995C158.35 8.19995 158.66 8.53995 159.31 8.58995C159.37 8.90995 159.34 9.30995 159.52 9.53995C163.11 14.3499 166.74 19.1399 170.33 23.9499C174.06 28.9499 178.37 33.5 181.79 38.75C182.75 40.22 183.89 39.66 184.7 38.81C186.1 37.34 187.53 35.8899 188.78 34.25C189.82 32.8899 190.15 31.0099 191.37 29.9999C193.64 28.1299 195.28 25.7399 196.95 23.4799C202.31 16.1999 207.95 9.12995 213.38 1.89995C214.41 0.529949 215.64 -0.0200513 217.4 0.00994874C224.14 0.109949 230.89 0.0499487 237.64 0.0399487C241.36 0.0399487 241.38 0.0699487 241.38 3.79995C241.38 36.2799 241.38 68.7599 241.37 101.24C241.37 102.64 241.81 104.15 241.09 105.42C240.03 107.32 238.45 105.59 237.15 105.64C231.66 105.88 226.16 105.67 220.67 105.78C218.66 105.82 218.1 105.1 218.14 103.17C218.25 97.5099 218.19 91.84 218.19 86.1799C218.19 69.4399 218.19 52.7 218.18 35.9599C218.18 34.9799 218.48 33.53 217.58 33.2C216.51 32.81 215.83 34.23 215.21 34.99C212.2 38.69 209.32 42.4899 206.37 46.2299C199.7 54.6899 193 63.1299 186.32 71.5899C184.56 73.8199 181.19 73.9299 179.47 71.6799C175.93 67.0399 172.46 62.3499 168.99 57.66C168.19 56.5799 167.43 55.5 165.91 55.47L165.89 55.5Z" fill="#E59842"/>
<path d="M99.9801 24.14C98.1001 26.62 96.2201 29.1 94.3401 31.58C93.6701 31.67 93.1701 31.91 92.7101 32.52C90.5301 35.38 88.2801 38.18 86.0301 40.99C81.2601 46.95 76.4201 52.85 71.7501 58.89C69.2701 62.1 66.3701 65 64.4501 68.64L64.4201 68.69C62.8101 69.17 62.5501 70.9 61.4801 71.91C59.5301 73.76 56.7001 73.86 55.0601 71.77C50.8001 66.34 46.5901 60.88 42.4101 55.38C39.4801 51.53 36.3801 47.8 33.8201 43.68C34.0501 42.11 33.4601 41.2 31.7901 41.14L31.7701 41.16C32.3101 39.54 30.7401 38.78 30.1301 37.75C28.9501 35.74 27.5701 33.66 25.1401 32.81C23.8001 32.34 22.8101 32.52 22.8601 34.28C22.8801 34.95 22.8601 35.61 22.8601 36.28C22.8601 58.43 22.8601 80.57 22.8601 102.72C22.8601 104.07 23.3001 105.63 20.9401 105.59C15.3601 105.5 9.78008 105.57 4.21008 105.55C3.57008 105.55 2.58008 105.68 2.56008 104.86C2.52008 103 1.33008 101.52 1.33008 99.6C1.40008 67.63 1.40008 35.66 1.33008 3.69003C1.33008 1.55003 2.05008 1.04003 4.06008 1.06003C12.1301 1.16003 20.2101 1.10003 28.2901 1.10003C30.9001 4.87003 33.9401 8.31003 36.6401 12.02C42.8501 20.52 49.2901 28.87 55.8301 37.13C59.0901 41.25 58.2301 41.69 61.9101 37.1C66.7401 31.09 71.1501 24.76 75.8301 18.63C80.1701 12.95 84.6901 7.41003 88.9801 1.69003C89.9201 0.440033 90.8201 0.0400333 92.2601 0.0500333C99.6601 0.0900333 107.07 0.0500333 114.47 0.0800333C115.23 0.0800333 116.26 -0.339967 116.66 0.710033C117.02 1.64003 116.63 2.52003 116.04 3.26003C113.12 6.94003 110.07 10.52 107.29 14.29C104.86 17.58 101.6 20.25 99.9701 24.13L99.9801 24.14Z" fill="#E69741"/>
<path d="M94.8099 43.5802C99.2299 38.0602 103.66 32.5402 108.08 27.0102C110.25 24.3002 112.69 21.8002 114.42 18.7502C115.04 18.6302 115.57 18.4202 115.44 17.6202L115.56 17.4602C117.7 17.0702 116.86 18.7502 116.86 19.5502C116.9 40.0302 116.89 60.5202 116.89 81.0002C116.89 83.3802 118.123 84.5669 120.59 84.5602C129.08 84.5602 137.58 84.6102 146.07 84.5002C148.08 84.4702 148.72 85.0702 148.56 87.0602C148.39 89.2902 148.58 91.5502 148.51 93.8002C148.39 98.0302 148.88 102.27 148.18 106.49L145.86 106.52C145.41 105.43 144.45 105.83 143.69 105.83C128.13 105.81 112.58 105.81 97.0199 105.83C96.2499 105.83 95.2999 105.47 94.8499 106.54C94.5599 106.53 94.2799 106.52 93.9899 106.51C93.8799 105.44 93.6699 104.38 93.6699 103.31C93.6499 85.2502 93.6499 67.1902 93.6499 49.1302C93.6499 47.2002 93.3599 45.2102 94.8199 43.5802H94.8099Z" fill="#424344"/>
<path d="M28.3 1.10013C20.22 1.10013 12.15 1.16013 4.07 1.06013C2.06 1.04013 1.34 1.55013 1.34 3.69013C1.4 35.6601 1.4 67.6301 1.34 99.6001C1.34 101.52 2.53 103.01 2.57 104.86C2.59 105.69 3.58 105.55 4.22 105.55C9.8 105.56 15.38 105.5 20.95 105.59C23.31 105.63 22.87 104.07 22.87 102.72C22.87 80.5701 22.87 58.4301 22.87 36.2801C22.87 35.6101 22.89 34.9501 22.87 34.2801C22.82 32.5201 23.81 32.3401 25.15 32.8101C27.58 33.6601 28.97 35.7401 30.14 37.7501C30.74 38.7801 32.31 39.5401 31.78 41.1601C29.69 39.8601 28.76 37.5401 27.15 35.8201C26.49 35.1201 26.12 33.7701 24.95 34.1701C23.75 34.5801 24.27 35.9101 24.27 36.8301C24.23 47.9101 24.24 58.9901 24.23 70.0701C24.23 81.0701 24.23 92.0601 24.23 103.06C24.23 106.45 24.21 106.46 20.94 106.47C15.19 106.47 9.44 106.44 3.7 106.51C2.31 106.53 1.1 106.32 0.05 105.38C0.02 70.6601 0.01 35.9601 0 1.25013C0.87 0.870128 1.42 0.0301276 2.59 0.0401276C10.53 0.110128 18.47 0.0601276 26.41 0.0801276C27.15 0.0801276 28.18 -0.189872 28.3 1.09013V1.10013Z" fill="#E59842"/>
<path d="M33.8301 43.6701C32.6701 43.2101 31.9801 42.3701 31.8101 41.1201C33.4701 41.1801 34.0701 42.1001 33.8301 43.6701Z" fill="#E59842"/>
</g>
<defs>
<clipPath id="clip0_160_521">
<rect width="241.49" height="106.54" fill="white"/>
</clipPath>
</defs>
</svg>
